:SAMPLES-PER-SECOND 30
:FULLY-SPECIFIED
:DEGREES
695
root  -5.86183 24.4413 -6.71539 -58.5616 -4.35534 82.5737
Spine  -16.096 -6.48888 -4.85421
Spine1  -16.1705 26.4044 -5.43574
Neck  3.97569e-016 0 -2.38542e-015
Head  12.68 -8.28416 0.911176
R_Clavicle  0.779055 -1.75539 4.11849
R_UpperArm  48.9693 30.1234 58.5677
R_Forearm  1.31588 -31.9353 23.8256
R_Hand  -0.966716 9.1381 -18.8144
L_Clavicle  -0.541115 17.6244 -2.73553
L_UpperArm  -29.1444 0.707855 44.2978
L_Forearm  3.69356 42.4464 58.7389
L_Hand  -0.191465 0.524567 -3.54843
L_Thigh  -24.3111 -15.3457 -28.0901
L_Calf  -8.67826 3.18858 -24.2357
L_Foot  7.13419 10.1926 15.3583
L_Toe0  -3.05136 0.851081 21.0242
R_Thigh  34.9368 14.3834 23.3266
R_Calf  10.3901 0.616701 2.02205
R_Foot  -13.9201 -31.324 11.9611
R_Toe0  -1.07383 -0.175657 -13.0892
696
root  -6.16474 23.8964 -6.94016 -58.6749 -4.52759 82.0975
Spine  -16.0214 -7.96999 -3.04098
Spine1  -16.254 30.1616 -6.3631
Neck  3.97569e-016 0 -2.38542e-015
Head  13.709 -7.94099 -1.40725
R_Clavicle  0.878273 -1.05965 4.5812
R_UpperArm  50.4156 33.0099 58.195
R_Forearm  -2.27624 -34.865 24.937
R_Hand  -0.82734 9.02349 -17.7849
L_Clavicle  -0.55756 18.0423 -2.4124
L_UpperArm  -27.9465 2.80784 50.2278
L_Forearm  2.44731 41.5307 54.9486
L_Hand  -0.0965982 0.461114 -1.78505
L_Thigh  -24.7021 -14.3657 -28.8347
L_Calf  -5.64653 3.52635 -26.9578
L_Foot  8.01794 12.1752 15.7711
L_Toe0  -0.911194 -0.32134 22.4758
R_Thigh  33.9826 15.6923 23.8771
R_Calf  17.6043 -0.129226 -0.236832
R_Foot  -19.7594 -32.6214 23.6334
R_Toe0  -1.83941 -0.282282 -17.694
697
root  -5.88669 23.925 -6.97898 -55.2455 -4.38394 81.1478
Spine  -15.5512 -9.17299 -1.87126
Spine1  -15.627 31.7225 -6.40736
Neck  3.97569e-016 0 -2.38542e-015
Head  10.6605 -8.52033 -1.75863
R_Clavicle  0.931398 -2.40997 5.04108
R_UpperArm  47.6201 27.8358 59.1864
R_Forearm  1.5307 -32.8569 23.9484
R_Hand  -0.639539 8.93957 -16.4173
L_Clavicle  -0.517905 17.2556 -2.42913
L_UpperArm  -22.9987 2.75157 51.9219
L_Forearm  0.836212 38.4528 45.6624
L_Hand  -0.0223066 1.45648 -0.276389
L_Thigh  -21.574 -12.1688 -29.0114
L_Calf  0.497357 3.76725 -28.9231
L_Foot  7.96032 12.6294 15.0694
L_Toe0  5.71423 -3.98412 23.4237
R_Thigh  33.1906 14.0402 24.1639
R_Calf  16.8969 -0.308798 -0.815681
R_Foot  -17.1856 -30.7433 19.9557
R_Toe0  -1.56405 -0.270729 -17.1957
698
root  -5.04584 24.5873 -6.75603 -51.3232 -2.96963 79.9597
Spine  -13.9224 -9.19361 -2.90692
Spine1  -13.5749 28.5467 -5.30207
Neck  3.97569e-016 0 -2.38542e-015
Head  4.60428 -9.47632 0.490746
R_Clavicle  0.805398 -6.56592 4.88457
R_UpperArm  40.8242 17.3403 60.0486
R_Forearm  11.899 -29.0804 22.2663
R_Hand  -0.629295 7.24227 -15.7722
L_Clavicle  -0.420866 15.3905 -2.51268
L_UpperArm  -11.0507 2.51523 49.8157
L_Forearm  -6.01128 29.5255 35.4815
L_Hand  0.0638583 4.09208 0.922146
L_Thigh  -17.3384 -10.9568 -28.0052
L_Calf  7.49663 3.65562 -27.9903
L_Foot  6.73068 9.81952 14.5453
L_Toe0  13.3068 -7.47222 21.2616
R_Thigh  34.017 11.333 23.4394
R_Calf  16.1963 1.32175 4.2195
R_Foot  -15.4757 -32.5612 14.4005
R_Toe0  -0.143521 -0.276922 -16.5194
699
root  -3.67063 25.7377 -6.23475 -47.7038 -0.623483 79.3332
Spine  -11.9667 -8.29697 -3.97624
Spine1  -11.4265 23.2974 -4.3909
Neck  3.97569e-016 0 -2.38542e-015
Head  -1.49468 -10.201 3.11597
R_Clavicle  0.611498 -12.3306 4.2442
R_UpperArm  36.2332 8.44352 57.3551
R_Forearm  20.1054 -30.0199 21.9787
R_Hand  -0.822435 4.01147 -16.2316
L_Clavicle  -0.376728 14.443 -2.15744
L_UpperArm  -8.96304 3.55575 45.9155
L_Forearm  -7.56776 21.5376 27.5367
L_Hand  0.240158 7.72845 2.29412
L_Thigh  -12.5079 -11.089 -25.1861
L_Calf  9.73103 3.20072 -24.3032
L_Foot  5.46926 4.90053 16.7048
L_Toe0  14.5007 -6.86133 17.6767
R_Thigh  33.285 9.71016 22.1716
R_Calf  14.1068 4.70673 14.906
R_Foot  -12.1809 -37.1698 3.14402
R_Toe0  0.536468 -0.260033 -14.7267
700
root  -2.01782 26.9306 -5.51592 -43.111 1.65112 79.5654
Spine  -10.5773 -6.41534 -3.6218
Spine1  -10.0275 18.8738 -3.57466
Neck  3.97569e-016 0 -2.38542e-015
Head  -6.51608 -11.1985 3.12332
R_Clavicle  0.49934 -17.0059 3.73222
R_UpperArm  37.2753 3.13886 49.6902
R_Forearm  23.9161 -35.5037 22.6935
R_Hand  -1.05888 1.85396 -18.2303
L_Clavicle  -0.448282 15.8702 -1.51344
L_UpperArm  -12.469 4.84468 41.2798
L_Forearm  -10.8719 17.3165 21.0966
L_Hand  0.500237 10.5969 3.76471
L_Thigh  -6.21474 -11.5976 -20.9219
L_Calf  5.75116 2.61164 -19.6973
L_Foot  5.30372 2.03185 20.5999
L_Toe0  8.61582 -3.60254 14.7633
R_Thigh  27.3192 8.84352 20.7826
R_Calf  6.33459 8.03873 26.0472
R_Foot  -2.6543 -33.1437 -17.178
R_Toe0  -1.54689 -0.132118 -12.1096
701
root  -0.430549 27.7457 -4.78324 -38.3841 3.18789 80.0493
Spine  -8.89412 -2.4216 -2.74044
Spine1  -8.45545 13.4745 -1.76979
Neck  3.97569e-016 0 -2.38542e-015
Head  -12.1627 -12.1414 0.550455
R_Clavicle  0.451332 -19.7595 3.40439
R_UpperArm  35.0184 -0.461186 39.22
R_Forearm  33.3679 -36.4236 22.7794
R_Hand  -1.36722 1.74083 -22.2904
L_Clavicle  -0.594512 19.4657 -1.25113
L_UpperArm  -14.2388 4.1494 37.0765
L_Forearm  -17.1427 13.0403 15.5044
L_Hand  0.601685 12.1059 4.13534
L_Thigh  -0.162689 -11.9116 -16.8316
L_Calf  0.554366 2.09832 -15.7957
L_Foot  6.11148 2.44117 23.1131
L_Toe0  3.02803 -1.33112 12.7361
R_Thigh  16.9443 8.11582 20.3635
R_Calf  -1.51235 8.54876 27.761
R_Foot  1.22041 -17.3949 -22.835
R_Toe0  -2.13547 -0.278464 -17.4785
702
root  0.923636 28.0244 -4.18228 -35.9334 4.55809 79.5589
Spine  -6.14547 2.53882 -1.33824
Spine1  -6.05767 4.89149 0.423767
Neck  3.97569e-016 0 -2.38542e-015
Head  -19.3561 -11.827 -2.42792
R_Clavicle  0.430135 -20.9914 2.80632
R_UpperArm  23.3805 -2.76876 29.0474
R_Forearm  51.245 -26.7808 19.5975
R_Hand  -1.63061 1.54059 -25.8919
L_Clavicle  -0.763378 23.131 -1.49683
L_UpperArm  -14.138 2.03137 34.962
L_Forearm  -22.1296 5.63415 6.52576
L_Hand  0.616742 13.4011 3.98774
L_Thigh  2.30239 -12.4321 -14.511
L_Calf  -0.259829 1.75597 -13.1866
L_Foot  6.98725 3.19764 25.1001
L_Toe0  1.02184 -0.507331 10.5086
R_Thigh  8.67423 7.20156 21.9741
R_Calf  -4.80532 4.64364 14.6025
R_Foot  0.779871 -5.74137 -15.5688
R_Toe0  -2.63319 -0.238111 -17.0425
703
root  2.12747 27.7834 -3.72925 -35.2012 7.0672 77.8675
Spine  -3.25902 4.80844 1.28235
Spine1  -3.5916 -4.2752 1.41453
Neck  3.97569e-016 0 -2.38542e-015
Head  -26.6771 -10.5723 -4.70483
R_Clavicle  0.418352 -20.0065 1.91553
R_UpperArm  19.7172 -2.48518 20.3445
R_Forearm  54.892 -13.1246 11.572
R_Hand  -1.53866 1.07605 -24.8387
L_Clavicle  -0.791915 23.8504 -1.44138
L_UpperArm  -12.6215 0.863465 33.457
L_Forearm  -23.338 -5.88335 -6.85741
L_Hand  0.958959 14.7589 5.67265
L_Thigh  0.877662 -13.7478 -13.4176
L_Calf  2.98597 1.5676 -11.6297
L_Foot  7.93532 2.86019 29.1587
L_Toe0  2.57588 -0.675218 6.41595
R_Thigh  3.49982 6.72031 22.0655
R_Calf  -0.445846 -1.3204 -4.1387
R_Foot  -0.980381 -7.41817 -6.33881
R_Toe0  -5.82952 0.498593 -9.35674
704
root  3.40029 27.3321 -3.41551 -32.9223 10.5474 76.3925
Spine  -1.44359 3.74106 3.89101
Spine1  -1.90801 -10.0565 1.26827
Neck  3.97569e-016 0 -2.38542e-015
Head  -32.5553 -10.2118 -5.91176
R_Clavicle  0.379976 -15.8412 1.42312
R_UpperArm  20.7347 0.988812 12.9089
R_Forearm  44.6315 1.11234 -0.95131
R_Hand  -1.11353 2.13729 -18.8631
L_Clavicle  -0.635441 21.0938 -0.686537
L_UpperArm  -10.6726 -0.198276 28.3923
L_Forearm  -19.8255 -17.7641 -21.7393
L_Hand  1.56447 15.0716 8.91819
L_Thigh  -1.50657 -15.1562 -11.8602
L_Calf  5.32386 1.41196 -10.2311
L_Foot  9.59705 2.99878 34.7782
L_Toe0  2.3382 -0.249286 -0.510301
R_Thigh  0.570089 4.56581 20.9315
R_Calf  5.70003 -7.41339 -23.7658
R_Foot  -0.0601887 -3.8221 -7.0229
R_Toe0  -3.60624 1.51622 2.50111
705
root  4.85762 27.2498 -3.34087 -27.7473 13.9737 76.7019
Spine  -0.721307 1.59565 4.77355
Spine1  -1.18198 -11.924 0.948104
Neck  3.97569e-016 0 -2.38542e-015
Head  -36.7521 -11.0803 -4.92989
R_Clavicle  0.364747 -9.38879 1.65595
R_UpperArm  20.1373 6.47804 6.74648
R_Forearm  29.0295 13.9261 -11.9153
R_Hand  -0.514503 3.63254 -12.7999
L_Clavicle  -0.483719 17.173 0.286114
L_UpperArm  -9.57557 -3.43569 18.2374
L_Forearm  -14.6221 -25.5396 -33.5127
L_Hand  1.84892 14.3811 10.8531
L_Thigh  -2.59945 -15.3584 -8.67995
L_Calf  6.65449 1.13705 -7.96491
L_Foot  10.3825 3.52887 36.3698
L_Toe0  0.678879 0.0444843 -5.60838
R_Thigh  1.14977 2.72094 15.942
R_Calf  8.11179 -11.338 -38.387
R_Foot  -0.147425 -2.97124 -5.04878
R_Toe0  -2.44832 -0.187627 -14.473
706
root  6.3274 27.6589 -3.62445 -21.173 16.7673 78.6105
Spine  -0.786936 -0.769208 4.18043
Spine1  -1.12448 -12.041 0.133436
Neck  3.97569e-016 0 -2.38542e-015
Head  -40.1345 -11.1905 -1.15565
R_Clavicle  0.404359 -3.16619 2.04225
R_UpperArm  19.1379 11.5759 1.75341
R_Forearm  17.7887 19.5862 -17.2208
R_Hand  -0.276388 4.0644 -10.5853
L_Clavicle  -0.407636 13.9698 0.763256
L_UpperArm  -9.06941 -8.06873 5.98785
L_Forearm  -11.3429 -28.3788 -38.6165
L_Hand  1.66051 13.3765 10.2811
L_Thigh  -2.28329 -14.879 -4.26539
L_Calf  10.3338 0.860232 -5.61128
L_Foot  9.96126 5.07842 32.1202
L_Toe0  0.466337 0.0360162 -6.23149
R_Thigh  4.00406 1.8875 8.57975
R_Calf  4.91857 -13.1232 -46.2393
R_Foot  -0.276366 -2.92195 -4.02842
R_Toe0  -1.72168 -0.291178 -17.6791
